<?xml version="1.0" encoding="utf-8"?>
<!-- Generator: Adobe Illustrator 23.0.4, SVG Export Plug-In . SVG Version: 6.00 Build 0)  -->
<svg version="1.1" id="Layer_1" xmlns="http://www.w3.org/2000/svg" xmlns:xlink="http://www.w3.org/1999/xlink" x="0px" y="0px"
	 viewBox="0 0 129 129" style="enable-background:new 0 0 129 129;" xml:space="preserve">
<style type="text/css">
	.st0{fill:#FFFFFF;}
</style>
<g>
	<g>
		<path class="st0" d="M64.5,6.5c-32,0-58.1,26-58.1,58s26,58,58.1,58c32,0,58-26,58-58S96.5,6.5,64.5,6.5z M64.5,114.4
			C37,114.4,14.6,92,14.6,64.5S37,14.6,64.5,14.6s49.9,22.4,49.9,49.9S92,114.4,64.5,114.4z"/>
		<path class="st0" d="M91.2,59.9H68.6V37.2c0-2.3-1.8-4.1-4.1-4.1c-2.3,0-4.1,1.8-4.1,4.1v22.6H37.8c-2.3,0-4.1,1.8-4.1,4.1
			c0,2.3,1.8,4.1,4.1,4.1h22.6v22.6c0,2.3,1.8,4.1,4.1,4.1c2.3,0,4.1-1.8,4.1-4.1V68h22.6c2.3,0,4.1-1.8,4.1-4.1
			S93.5,59.9,91.2,59.9z"/>
	</g>
</g>
</svg>
