<?xml version="1.0" encoding="utf-8"?>
<!-- Generator: Adobe Illustrator 23.0.4, SVG Export Plug-In . SVG Version: 6.00 Build 0)  -->
<svg version="1.1" id="Layer_1" xmlns="http://www.w3.org/2000/svg" xmlns:xlink="http://www.w3.org/1999/xlink" x="0px" y="0px"
	 viewBox="0 0 129 129" style="enable-background:new 0 0 129 129;" xml:space="preserve">
<style type="text/css">
	.st0{fill:#FFFFFF;}
</style>
<g>
	<path class="st0" d="M40.4,121.3L64.5,97l24.1,24.3c0.8,0.8,1.8,1.2,2.9,1.2c0.5,0,1-0.1,1.6-0.3c1.5-0.6,2.5-2.1,2.5-3.8V10.6
		c0-2.3-1.8-4.1-4.1-4.1h-54c-2.3,0-4.1,1.8-4.1,4.1v107.8c0,1.7,1,3.1,2.5,3.8C37.5,122.8,39.3,122.5,40.4,121.3z M41.6,14.7h45.7
		v93.8l-20-20.2c-0.8-0.8-1.8-1.2-2.9-1.2s-2.1,0.4-2.9,1.2l-20,20.2V14.7L41.6,14.7z"/>
</g>
</svg>
