<?xml version="1.0" encoding="utf-8"?>
<!-- Generator: Adobe Illustrator 23.0.4, SVG Export Plug-In . SVG Version: 6.00 Build 0)  -->
<svg version="1.1" id="Layer_1" xmlns="http://www.w3.org/2000/svg" xmlns:xlink="http://www.w3.org/1999/xlink" x="0px" y="0px"
	 viewBox="0 0 129 129" style="enable-background:new 0 0 129 129;" xml:space="preserve">
<style type="text/css">
	.st0{fill:#FFFFFF;}
</style>
<g>
	<path class="st0" d="M7.6,121.4c0.8,0.8,1.8,1.2,2.9,1.2s2.1-0.4,2.9-1.2l51.1-51.1l51.1,51.1c0.8,0.8,1.8,1.2,2.9,1.2
		c1,0,2.1-0.4,2.9-1.2c1.6-1.6,1.6-4.2,0-5.8L70.3,64.5l51.1-51.1c1.6-1.6,1.6-4.2,0-5.8s-4.2-1.6-5.8,0L64.5,58.7L13.4,7.6
		C11.8,6,9.2,6,7.6,7.6s-1.6,4.2,0,5.8l51.1,51.1L7.6,115.6C6,117.2,6,119.8,7.6,121.4z"/>
</g>
</svg>
