<?xml version="1.0" encoding="utf-8"?>
<!-- Generator: Adobe Illustrator 23.0.4, SVG Export Plug-In . SVG Version: 6.00 Build 0)  -->
<svg version="1.1" id="Layer_1" xmlns="http://www.w3.org/2000/svg" xmlns:xlink="http://www.w3.org/1999/xlink" x="0px" y="0px"
	 viewBox="0 0 129 129" style="enable-background:new 0 0 129 129;" xml:space="preserve">
<style type="text/css">
	.st0{fill:#FFFFFF;}
</style>
<g>
	<path class="st0" d="M61.8,94.8c0.5,0.2,1,0.3,1.6,0.3c1.1,0,2.1-0.4,2.9-1.2l26.5-26.5c0.8-0.8,1.2-1.8,1.2-2.9s-0.4-2.1-1.2-2.9
		L66.2,35.1c-1.2-1.2-2.9-1.5-4.5-0.9c-1.5,0.6-2.5,2.1-2.5,3.8v14.3L42.1,35.1c-1.2-1.2-2.9-1.5-4.5-0.9c-1.5,0.6-2.5,2.1-2.5,3.8
		v53c0,1.7,1,3.2,2.5,3.8c0.5,0.2,1,0.3,1.6,0.3c1.1,0,2.1-0.4,2.9-1.2l17.2-17.2V91C59.2,92.6,60.2,94.1,61.8,94.8L61.8,94.8z
		 M67.5,66.8v-4.6V47.9L84,64.5L67.5,81.1V66.8z M43.3,81.1V47.9l16,16v1.2L43.3,81.1z"/>
</g>
</svg>
