<?xml version="1.0" encoding="utf-8"?>
<!-- Generator: Adobe Illustrator 23.0.4, SVG Export Plug-In . SVG Version: 6.00 Build 0)  -->
<svg version="1.1" id="Layer_1" xmlns="http://www.w3.org/2000/svg" xmlns:xlink="http://www.w3.org/1999/xlink" x="0px" y="0px"
	 viewBox="0 0 129 129" style="enable-background:new 0 0 129 129;" xml:space="preserve">
<style type="text/css">
	.st0{fill:#FFFFFF;}
</style>
<g>
	<path class="st0" d="M64.5,6.4c-31.9,0-57.9,26-57.9,57.9v4.6v9v39.9c0,2.3,1.8,4.1,4.1,4.1h21.1c2.3,0,4.1-1.8,4.1-4.1V68.9
		c0-2.3-1.8-4.1-4.1-4.1h-17v-0.5c0-27.4,22.3-49.8,49.8-49.8s49.8,22.3,49.8,49.8v0.5h-17c-2.3,0-4.1,1.8-4.1,4.1v48.9
		c0,2.3,1.8,4.1,4.1,4.1h21.1c2.3,0,4.1-1.8,4.1-4.1V77.9v-9v-4.6C122.4,32.4,96.4,6.4,64.5,6.4z M27.7,73v40.8h-13V77.9v-5L27.7,73
		L27.7,73z M114.3,78v35.8h-12.9V73.1h12.9C114.3,73.1,114.3,78,114.3,78z"/>
</g>
</svg>
