<?xml version="1.0" encoding="utf-8"?>
<!-- Generator: Adobe Illustrator 23.0.4, SVG Export Plug-In . SVG Version: 6.00 Build 0)  -->
<svg version="1.1" id="Layer_1" xmlns="http://www.w3.org/2000/svg" xmlns:xlink="http://www.w3.org/1999/xlink" x="0px" y="0px"
	 viewBox="0 0 236.92 214.44" style="enable-background:new 0 0 236.92 214.44;" xml:space="preserve">
<style type="text/css">
	.st0{fill:#FFFFFF;}
</style>
<g>
	<path class="st0" d="M210.12,138.88c0,1.12-0.38,2.11-1.18,2.92l-26.56,26.68c-0.81,0.81-1.81,1.18-2.92,1.18
		c-0.63,0-1.12-0.06-1.62-0.31c-1.62-0.68-2.61-2.17-2.61-3.79v-53.3c0-1.74,0.99-3.24,2.55-3.86c1.56-0.62,3.3-0.31,4.48,0.93
		l26.68,26.62C209.75,136.7,210.12,137.76,210.12,138.88z"/>
	<g>
		<path class="st0" d="M168.26,205.78h-37.88c-6.63-9.58-13.73-19.84-21.29-30.78c-7.56-10.94-15.43-21.58-23.58-31.93l-10.45,9.74
			v29.8c0,3.06,0.55,5.58,1.66,7.58c1.1,2,2.88,3.46,5.35,4.39c2.04,0.85,3.99,1.49,5.86,1.91c1.87,0.43,4.03,0.72,6.49,0.89v8.4
			h-61.5v-8.4c1.94-0.17,3.96-0.36,6.07-0.57c2.11-0.21,3.88-0.53,5.31-0.96c2.36-0.76,4.13-2.1,5.31-4.01
			c1.18-1.91,1.77-4.39,1.77-7.45V38.35c0-3.14-0.66-6.09-1.97-8.86c-1.32-2.76-3.04-4.86-5.16-6.31c-1.78-1.36-4.56-2.25-8.34-2.67
			c-3.78-0.43-6.81-0.72-9.1-0.89v-8.15l46.48-2.8l1.78,1.91V143.4c6.62-6.62,13.78-13.72,21.47-21.32
			c7.69-7.59,14.16-14.36,19.43-20.3c0.68-0.77,1.42-1.77,2.23-3c0.81-1.23,1.21-2.23,1.21-3c0-2.3-1.85-4-5.54-5.11
			c-3.69-1.11-7.24-1.87-10.63-2.3v-8.15h55.23v7.89c-7.13,2.12-13.43,4.77-18.91,7.96c-5.48,3.18-9.66,6.05-12.54,8.59
			c-2.04,1.7-4.93,4.45-8.67,8.27c-3.74,3.81-8.97,8.81-15.68,15c6.96,8.58,14.8,18.86,23.5,30.83
			c8.71,11.98,15.06,20.64,19.05,25.99c3.74,5.01,7.09,8.28,10.06,9.81c2.97,1.53,7.3,2.46,12.99,2.8V205.78z"/>
	</g>
</g>
</svg>
