<?xml version="1.0" encoding="utf-8"?>
<!-- Generator: Adobe Illustrator 23.0.4, SVG Export Plug-In . SVG Version: 6.00 Build 0)  -->
<svg version="1.1" id="Layer_1" xmlns="http://www.w3.org/2000/svg" xmlns:xlink="http://www.w3.org/1999/xlink" x="0px" y="0px"
	 viewBox="0 0 129 129" style="enable-background:new 0 0 129 129;" xml:space="preserve">
<style type="text/css">
	.st0{fill:#FFFFFF;}
</style>
<g>
	<path class="st0" d="M57.4,122.2c0.5,0.2,1,0.3,1.5,0.3c1.3,0,2.6-0.6,3.4-1.8l42.9-62c0.9-1.2,1-2.9,0.3-4.2s-2.1-2.2-3.6-2.2
		l-26.6-0.2L83,11.3c0.4-1.8-0.6-3.7-2.3-4.5C79,6,77,6.5,75.8,8L30.3,65.3c-1,1.2-1.2,2.9-0.5,4.3s2.1,2.3,3.7,2.3l29.4,0.2
		L55,117.7C54.6,119.6,55.6,121.5,57.4,122.2z M41.9,63.8l30-37.8l-5.6,29.5c-0.2,1.2,0.1,2.4,0.9,3.4c0.8,0.9,1.9,1.5,3.1,1.5
		L94,60.5l-27.9,40.4l5.5-32.2c0.2-1.2-0.1-2.4-0.9-3.3c-0.7-0.9-1.8-1.4-3-1.4C67.7,64,41.9,63.8,41.9,63.8z"/>
</g>
</svg>
