<svg xmlns="http://www.w3.org/2000/svg" viewBox="0 0 312.75 240.25"><defs><style>.cls-1{fill:#e26500;}</style></defs><title>logo_temporary</title><g id="Layer_2" data-name="Layer 2"><g id="Layer_1-2" data-name="Layer 1"><rect class="cls-1" x="135.9" y="50.85" width="170.1" height="24.96" transform="translate(-2.06 118.96) rotate(-30)"/><polygon class="cls-1" points="288.37 10 141.06 95.05 153.53 116.66 300.85 31.61 288.37 10 288.37 10"/><path class="cls-1" d="M284,211.17l1.11.76Z"/><polygon class="cls-1" points="157.25 109.1 143.13 129.68 288.32 229.28 302.44 208.7 157.25 109.1 157.25 109.1"/><rect class="cls-1" x="134.42" y="15.84" width="24.96" height="207.38"/><polygon class="cls-1" points="159.38 15.84 134.42 15.84 134.42 223.22 159.38 223.22 159.38 15.84 159.38 15.84"/><path class="cls-1" d="M312.75,240.25H0V0H312.75ZM20,220.25H292.75V20H20Z"/></g></g></svg>