<?xml version="1.0" encoding="utf-8"?>
<!-- Generator: Adobe Illustrator 23.0.6, SVG Export Plug-In . SVG Version: 6.00 Build 0)  -->
<svg version="1.1" id="Layer_1" xmlns="http://www.w3.org/2000/svg" xmlns:xlink="http://www.w3.org/1999/xlink" x="0px" y="0px"
	 viewBox="0 0 129 129" style="enable-background:new 0 0 129 129;" xml:space="preserve">
<g>
	<g>
		<path d="M64.5,122.2c-6.1,0-11.4-3.8-13.2-9.3l-1.7-5.4h29.8l-1.8,5.5C75.9,118.5,70.6,122.2,64.5,122.2z M109,104.9H20
			c-3.1,0-5.7-2.5-5.7-5.7v0c0-1.6,0.6-3,1.8-4.1l8.5-8.1c1.2-1.1,1.9-2.7,1.9-4.4V57.1c0-17.8,9.6-31.9,24.9-37
			c1.5-0.5,2.5-1.8,2.5-3.4v0c0-5.7,4.8-10.3,10.7-10.3s10.7,4.6,10.7,10.3v0c0,1.5,1,2.9,2.4,3.4c15.2,5.1,24.9,19.2,24.9,37v25.6
			c0,1.6,0.7,3.2,1.9,4.4l8.5,8.1c1.1,1.1,1.8,2.6,1.8,4.1v0C114.7,102.4,112.2,104.9,109,104.9z M31,96.6h67c1.5,0,2.3-1.9,1.2-2.9
			l0,0c-3.2-3-5-7.2-5-11.6V57.1c0-15.4-8.5-26.8-22.1-29.9l-2.5-0.6c-1.6-0.4-2.8-1.8-2.8-3.5v-6.5c0-0.9-0.9-1.9-2.4-1.9
			c-1.5,0-2.4,1-2.4,1.9v6.5c0,1.7-1.2,3.1-2.8,3.5l-2.5,0.6c-13.6,3.1-22.1,14.5-22.1,29.9V82c0,4.4-1.8,8.6-5,11.6l0,0
			C28.7,94.7,29.4,96.6,31,96.6z"/>
	</g>
</g>
</svg>
