<svg width="15" height="18" viewBox="0 0 15 18" fill="none" xmlns="http://www.w3.org/2000/svg">
<path fill-rule="evenodd" clip-rule="evenodd" d="M5.55581 15.686C5.82093 16.4961 6.60155 17.0558 7.5 17.0558C8.39845 17.0558 9.17907 16.5109 9.42946 15.7008L9.69457 14.8907H5.30543L5.55581 15.686ZM0.945736 14.5078H14.0543C14.5256 14.5078 14.8938 14.1395 14.9085 13.6829C14.9085 13.462 14.8054 13.2411 14.6434 13.0791L13.3915 11.886C13.2147 11.7093 13.1116 11.4736 13.1116 11.238V7.46744C13.1116 4.84574 11.6829 2.76899 9.44419 2.01783C9.23798 1.94419 9.0907 1.73798 9.0907 1.51705C9.0907 0.67752 8.38372 0 7.51473 0C6.64574 0 5.93876 0.67752 5.93876 1.51705C5.93876 1.75271 5.79147 1.94419 5.57054 2.01783C3.31705 2.76899 1.9031 4.84574 1.9031 7.46744V11.2233C1.9031 11.4736 1.8 11.7093 1.62326 11.8713L0.371318 13.0643C0.194573 13.2264 0.106201 13.4326 0.106201 13.6682C0.106201 14.1395 0.489147 14.5078 0.945736 14.5078Z" fill="#F1F1F1"/>
</svg>
