<?xml version="1.0" encoding="utf-8"?>
<!-- Generator: Adobe Illustrator 23.0.6, SVG Export Plug-In . SVG Version: 6.00 Build 0)  -->
<svg version="1.1" id="Layer_1" xmlns="http://www.w3.org/2000/svg" xmlns:xlink="http://www.w3.org/1999/xlink" x="0px" y="0px"
	 viewBox="0 0 129 129" style="enable-background:new 0 0 129 129;" xml:space="preserve">
<style type="text/css">
	.st0{fill:#FFFFFF;}
</style>
<g>
	<g>
		<path class="st0" d="M64.5,122.6c32.1,0,58.1-26.1,58.1-58.1S96.6,6.4,64.5,6.4S6.4,32.4,6.4,64.5S32.4,122.6,64.5,122.6z
			 M64.5,14.5c27.5,0,50,22.4,50,50s-22.4,50-50,50s-50-22.4-50-50S37,14.5,64.5,14.5z"/>
		<path class="st0" d="M53.8,94.7c2.3,0,4.1-1.8,4.1-4.1V37.5c0-2.3-1.8-4.1-4.1-4.1s-4.1,1.8-4.1,4.1v53.1
			C49.7,92.9,51.5,94.7,53.8,94.7z"/>
		<path class="st0" d="M75.2,94.7c2.3,0,4.1-1.8,4.1-4.1V37.5c0-2.3-1.8-4.1-4.1-4.1c-2.3,0-4.1,1.8-4.1,4.1v53.1
			C71.1,92.9,72.9,94.7,75.2,94.7z"/>
	</g>
</g>
</svg>
