<?xml version="1.0" encoding="utf-8"?>
<!-- Generator: Adobe Illustrator 23.0.4, SVG Export Plug-In . SVG Version: 6.00 Build 0)  -->
<svg version="1.1" id="Layer_1" xmlns="http://www.w3.org/2000/svg" xmlns:xlink="http://www.w3.org/1999/xlink" x="0px" y="0px"
	 viewBox="0 0 129 129" style="enable-background:new 0 0 129 129;" xml:space="preserve">
<style type="text/css">
	.st0{fill:#FFFFFF;}
</style>
<g>
	<g>
		<path class="st0" d="M64.5,122.5c32,0,58-26,58-58c0-27.3-18.6-50.6-45.2-56.6c-2.2-0.5-4.4,0.9-4.9,3.1s0.9,4.4,3.1,4.9
			C98.4,21,114.4,41,114.4,64.5c0,27.5-22.4,49.9-49.9,49.9S14.6,92,14.6,64.5c0-23.4,15.9-43.3,38.6-48.6c2.2-0.5,3.6-2.7,3.1-4.9
			s-2.7-3.6-4.9-3.1c-26.5,6.1-45,29.4-45,56.6C6.4,96.5,32.5,122.5,64.5,122.5z"/>
		<path class="st0" d="M60.4,10.6v53.9c0,2.3,1.8,4.1,4.1,4.1c2.3,0,4.1-1.8,4.1-4.1V10.6c0-2.3-1.8-4.1-4.1-4.1
			C62.2,6.5,60.4,8.3,60.4,10.6z"/>
	</g>
</g>
</svg>
