<svg width="32" height="32" viewBox="0 0 32 32" fill="none" xmlns="http://www.w3.org/2000/svg">
<circle cx="16" cy="16" r="16" fill="white"/>
<path fill-rule="evenodd" clip-rule="evenodd" d="M26.7637 26.87C26.7637 26.87 26.8186 24.7962 25.4923 23.5693C24.0861 22.2689 22.1779 22.2351 22.1779 22.2351C20.0462 22.1138 18.2468 20.6186 18.2468 20.6186V18.9185C18.2468 18.9185 19.0941 18.8957 20.4284 18.4781C21.6849 18.0844 22.0362 17.4114 22.0362 17.4114C22.0362 17.4114 21.6031 16.7045 21.2827 15.7163C21.0082 14.8722 20.8406 13.9417 20.8096 13.6016C20.7647 13.1304 20.7049 12.4315 20.7867 11.837C20.9334 10.7712 20.9264 9.1974 20.5402 7.87812C20.1999 6.71691 19.3376 5.92952 18.7009 5.49506C18.0651 5.06159 16.8466 4.90451 16.132 5.05662C15.2148 5.25049 14.5592 5.72571 14.5592 5.72571C14.5592 5.72571 13.4594 5.47716 12.5222 5.97624C11.5851 6.47731 11.0053 8.09087 10.8047 9.09102C10.6041 10.0912 10.7907 12.0666 10.8576 13.1344C10.9244 14.2011 10.9344 14.8583 10.7877 15.3643C10.639 15.8783 10.0682 17.301 10.0682 17.301C10.9414 18.1888 13.5182 18.9185 13.5182 18.9185V20.6186C13.5182 20.6186 11.7188 22.1138 9.58612 22.2351C9.58612 22.2351 7.67794 22.2689 6.27276 23.5693C4.94641 24.7962 5.0003 26.87 5.0003 26.87H26.7637Z" fill="#A9A9A9"/>
</svg>
