<?xml version="1.0" encoding="utf-8"?>
<!-- Generator: Adobe Illustrator 23.0.4, SVG Export Plug-In . SVG Version: 6.00 Build 0)  -->
<svg version="1.1" id="Layer_1" xmlns="http://www.w3.org/2000/svg" xmlns:xlink="http://www.w3.org/1999/xlink" x="0px" y="0px"
	 viewBox="0 0 129 129" style="enable-background:new 0 0 129 129;" xml:space="preserve">
<style type="text/css">
	.st0{fill:#FFFFFF;}
</style>
<g>
	<path class="st0" d="M115.9,13.3c-4.3-4.3-10-6.7-16.1-6.7S88,9,83.7,13.3c-1.9,1.9-3.4,4.1-4.5,6.5L67.3,7.9
		c-1.6-1.6-4.2-1.6-5.7,0l-54,54C6,63.5,6,66,7.6,67.6l54,54c0.8,0.8,1.8,1.2,2.9,1.2s2.1-0.4,2.9-1.2l17.2-17.2
		c1.1-1.1,1.5-2.8,0.9-4.3s-1.9-2.5-3.5-2.6c-3.5-0.3-6.8-1.8-9.3-4.2c-2.8-2.8-4.3-6.5-4.3-10.4s1.5-7.6,4.3-10.4s6.5-4.3,10.4-4.3
		s7.6,1.5,10.4,4.3c2.5,2.5,4,5.8,4.2,9.3c0.1,1.6,1.1,3,2.6,3.5c1.5,0.6,3.2,0.2,4.3-0.9l16.7-16.7c0.8-0.8,1.2-1.8,1.2-2.9
		s-0.4-2.1-1.2-2.9L109.4,50c2.4-1.1,4.6-2.7,6.5-4.5C124.8,36.6,124.8,22.1,115.9,13.3z M110.2,39.7c-2.4,2.4-5.5,3.9-8.9,4.2
		c-1.6,0.2-2.9,1.2-3.4,2.7s-0.2,3.1,1,4.2l13.9,13.9l-8.8,8.8c-1.1-2.5-2.7-4.9-4.7-6.8C95,62.4,89.3,60,83.2,60
		s-11.8,2.4-16.1,6.7s-6.7,10-6.7,16.1s2.4,11.8,6.7,16.1c2,2,4.3,3.6,6.8,4.7l-9.3,9.3L16.2,64.7l48.2-48.2l13.9,13.9
		c1.1,1.1,2.8,1.5,4.2,1c1.5-0.5,2.5-1.9,2.7-3.4c0.3-3.4,1.8-6.5,4.2-8.9c2.8-2.8,6.5-4.3,10.4-4.3s7.6,1.5,10.4,4.3
		C115.9,24.7,115.9,34,110.2,39.7z"/>
</g>
</svg>
