<?xml version="1.0" encoding="utf-8"?>
<!-- Generator: Adobe Illustrator 23.0.4, SVG Export Plug-In . SVG Version: 6.00 Build 0)  -->
<svg version="1.1" id="Layer_1" xmlns="http://www.w3.org/2000/svg" xmlns:xlink="http://www.w3.org/1999/xlink" x="0px" y="0px"
	 viewBox="0 0 129 129" style="enable-background:new 0 0 129 129;" xml:space="preserve">
<style type="text/css">
	.st0{fill:#FFFFFF;}
</style>
<g>
	<path class="st0" d="M118.5,6.5c-2.3,0-4.1,1.8-4.1,4.1v24.3c-10.3-17.3-29-28.4-49.9-28.4c-32,0-58,26-58,58.1s26,58,58,58
		s58-26,58-58c0-2.3-1.8-4.1-4.1-4.1s-4.1,1.8-4.1,4.1c0,27.5-22.4,49.9-49.9,49.9S14.6,92,14.6,64.5S37,14.6,64.5,14.6
		c19.7,0,37.3,11.5,45.3,29.1H81.1c-2.3,0-4.1,1.8-4.1,4.1s1.8,4.1,4.1,4.1h37.3c2.3,0,4.1-1.8,4.1-4.1V10.5
		C122.5,8.3,120.7,6.5,118.5,6.5z"/>
</g>
</svg>
