<?xml version="1.0" encoding="utf-8"?>
<!-- Generator: Adobe Illustrator 23.0.4, SVG Export Plug-In . SVG Version: 6.00 Build 0)  -->
<svg version="1.1" id="Layer_1" xmlns="http://www.w3.org/2000/svg" xmlns:xlink="http://www.w3.org/1999/xlink" x="0px" y="0px"
	 viewBox="0 0 129 129" style="enable-background:new 0 0 129 129;" xml:space="preserve">
<style type="text/css">
	.st0{fill:#FFFFFF;}
</style>
<g>
	<g>
		<path class="st0" d="M64.5,122.4c31.9,0,57.9-26,57.9-57.9S96.4,6.6,64.5,6.6S6.6,32.6,6.6,64.5S32.6,122.4,64.5,122.4z
			 M64.5,14.7c27.4,0,49.8,22.3,49.8,49.8S92,114.3,64.5,114.3S14.7,91.9,14.7,64.5S37.1,14.7,64.5,14.7z"/>
		<path class="st0" d="M37.8,68h53.3c2.3,0,4.1-1.8,4.1-4.1s-1.8-4.1-4.1-4.1H37.8c-2.3,0-4.1,1.8-4.1,4.1
			C33.7,66.2,35.6,68,37.8,68z"/>
	</g>
</g>
</svg>
