<?xml version="1.0" encoding="utf-8"?>
<!-- Generator: Adobe Illustrator 23.0.4, SVG Export Plug-In . SVG Version: 6.00 Build 0)  -->
<svg version="1.1" id="Layer_1" xmlns="http://www.w3.org/2000/svg" xmlns:xlink="http://www.w3.org/1999/xlink" x="0px" y="0px"
	 viewBox="0 0 129 129" style="enable-background:new 0 0 129 129;" xml:space="preserve">
<style type="text/css">
	.st0{fill:#FFFFFF;}
</style>
<g>
	<g>
		<path class="st0" d="M100.1,106.2c2.3,0,4.1-1.8,4.1-4.1v-8.4c0-8.2-3.3-15.9-9.2-21.5c0.4-2.6,0.7-5.2,0.7-7.7
			c0-28.5-27.1-56-28.3-57.1c-0.8-0.8-1.8-1.2-2.9-1.2s-2.1,0.4-2.9,1.2c-1.1,1.2-28.1,28.7-28.1,57.1c0,2.5,0.2,5,0.6,7.5
			c-5.9,5.7-9.3,13.4-9.3,21.7v8.4c0,2.3,1.8,4.1,4.1,4.1s4.1-1.8,4.1-4.1v-8.4c0-4.3,1.3-8.4,3.5-11.9c1.2,3.7,2.9,7.6,4.9,11.5
			c0.7,1.4,2.1,2.2,3.7,2.2h15.4v6.6c0,2.3,1.8,4.1,4.1,4.1c2.3,0,4.1-1.8,4.1-4.1v-6.6h15.5c1.5,0,2.9-0.9,3.7-2.2
			c2-3.8,3.6-7.6,4.8-11.3c2.2,3.5,3.4,7.5,3.4,11.7v8.4C96,104.3,97.8,106.2,100.1,106.2z M81.6,87.3h-13v-6.6
			c0-2.3-1.8-4.1-4.1-4.1c-2.3,0-4.1,1.8-4.1,4.1v6.6H47.6c-2.3-4.9-4-9.7-4.9-14.1c0-0.3-0.1-0.6-0.2-0.9c-0.5-2.7-0.8-5.3-0.8-7.8
			c0-19.8,16.1-40.4,22.8-48.1c6.8,7.7,23,28.2,23,48.1C87.5,71.4,85.5,79.1,81.6,87.3z"/>
		<path class="st0" d="M49.9,52.9c0,8.1,6.6,14.8,14.8,14.8s14.8-6.6,14.8-14.8s-6.6-14.8-14.8-14.8S49.9,44.8,49.9,52.9z
			 M64.7,46.4c3.6,0,6.6,2.9,6.6,6.6s-2.9,6.6-6.6,6.6c-3.6,0-6.6-2.9-6.6-6.6S61.1,46.4,64.7,46.4z"/>
		<path class="st0" d="M45.9,118.7V105c0-2.3-1.8-4.1-4.1-4.1s-4.1,1.8-4.1,4.1v13.7c0,2.3,1.8,4.1,4.1,4.1S45.9,121,45.9,118.7z"/>
		<path class="st0" d="M91.3,118.7V105c0-2.3-1.8-4.1-4.1-4.1c-2.3,0-4.1,1.8-4.1,4.1v13.7c0,2.3,1.8,4.1,4.1,4.1
			C89.4,122.8,91.3,121,91.3,118.7z"/>
	</g>
</g>
</svg>
