<?xml version="1.0" encoding="utf-8"?>
<!-- Generator: Adobe Illustrator 23.0.4, SVG Export Plug-In . SVG Version: 6.00 Build 0)  -->
<svg version="1.1" id="Layer_1" xmlns="http://www.w3.org/2000/svg" xmlns:xlink="http://www.w3.org/1999/xlink" x="0px" y="0px"
	 viewBox="0 0 129 129" style="enable-background:new 0 0 129 129;" xml:space="preserve">
<style type="text/css">
	.st0{fill:#FFFFFF;}
</style>
<g>
	<path class="st0" d="M121.4,61.6l-54-54c-0.7-0.7-1.8-1.2-2.9-1.2s-2.2,0.5-2.9,1.2l-54,54c-1.6,1.6-1.6,4.2,0,5.8
		c0.8,0.8,1.8,1.2,2.9,1.2s2.1-0.4,2.9-1.2l47-47v98.1c0,2.3,1.8,4.1,4.1,4.1s4.1-1.8,4.1-4.1V20.4l47,47c1.6,1.6,4.2,1.6,5.8,0
		S122.9,63.2,121.4,61.6z"/>
</g>
</svg>
