<svg width="18" height="18" viewBox="0 0 18 18" fill="none" xmlns="http://www.w3.org/2000/svg">
<path fill-rule="evenodd" clip-rule="evenodd" d="M8.55736 0L8.52867 4.72069e-05L8.5 0C3.80558 0 0 3.80558 0 8.5L2.6226e-05 8.52133L0 8.54264C0 13.2558 3.82946 17.0853 8.55736 17.0853C13.2705 17.0853 17.1 13.2558 17.1 8.54264C17.1 3.82946 13.2705 0 8.55736 0ZM5.42161 11.9023L9.54565 9.64877C9.58983 9.61931 9.61929 9.58986 9.63402 9.5604L11.8875 5.43637C11.9906 5.23017 11.7697 4.99451 11.5635 5.11234L7.43945 7.36582C7.40999 7.38055 7.3658 7.41001 7.35107 7.4542L5.09758 11.5782C4.99448 11.7844 5.21541 12.0201 5.42161 11.9023Z" fill="#F1F1F1"/>
</svg>
