<?xml version="1.0" encoding="utf-8"?>
<!-- Generator: Adobe Illustrator 23.0.4, SVG Export Plug-In . SVG Version: 6.00 Build 0)  -->
<svg version="1.1" id="Layer_1" xmlns="http://www.w3.org/2000/svg" xmlns:xlink="http://www.w3.org/1999/xlink" x="0px" y="0px"
	 viewBox="0 0 129 129" style="enable-background:new 0 0 129 129;" xml:space="preserve">
<style type="text/css">
	.st0{fill:#FFFFFF;}
</style>
<g>
	<g>
		<path class="st0" d="M64.7,36.3c-28.4,0-55.9,27.1-57,28.3c-0.8,0.8-1.2,1.8-1.2,2.9s0.4,2.1,1.2,2.9c1.2,1.2,28.6,28.3,57,28.3
			s55.9-27.1,57-28.3c0.8-0.8,1.2-1.8,1.2-2.9s-0.4-2.1-1.2-2.9C120.6,63.4,93.2,36.3,64.7,36.3z M64.7,90.4
			c-19.9,0-40.4-16.2-48.1-23c7.7-6.8,28.2-23,48.1-23s40.4,16.2,48.1,23C105.1,74.2,84.6,90.4,64.7,90.4z"/>
		<path class="st0" d="M50,67.4c0,8.1,6.6,14.8,14.8,14.8s14.8-6.6,14.8-14.8S73,52.6,64.8,52.6S50,59.3,50,67.4z M71.3,67.4
			c0,3.6-2.9,6.6-6.6,6.6c-3.6,0-6.6-2.9-6.6-6.6s2.9-6.6,6.6-6.6C68.3,60.9,71.3,63.8,71.3,67.4z"/>
	</g>
</g>
</svg>
